<?xml version="1.0" encoding="UTF-8" standalone="no"?><!DOCTYPE svg PUBLIC "-//W3C//DTD SVG 1.1//EN" "http://www.w3.org/Graphics/SVG/1.1/DTD/svg11.dtd"><svg width="100%" height="100%" viewBox="0 0 73 69" version="1.1" xmlns="http://www.w3.org/2000/svg" xmlns:xlink="http://www.w3.org/1999/xlink" xml:space="preserve" style="fill-rule:evenodd;clip-rule:evenodd;stroke-linejoin:round;stroke-miterlimit:1.41421;"><g><path d="M70.386,30.613c-0.968,0 -1.613,0.646 -1.613,1.614l0,17.75c0,1.775 -1.452,3.227 -3.227,3.227l-3.228,0c-2.743,0 -4.841,2.098 -4.841,4.841l0,3.227c0,1.775 -1.452,3.228 -3.227,3.228l-8.068,0l-40.341,0c-0.968,0 -1.614,-0.646 -1.614,-1.614l0,-30.659c0,-0.968 -0.645,-1.614 -1.613,-1.614c-0.968,0 -1.614,0.646 -1.614,1.614l0,30.659c0,2.743 2.098,4.841 4.841,4.841l50.507,0c2.097,0 4.195,-0.807 5.647,-2.421l7.584,-7.584c1.453,-1.452 2.421,-3.55 2.421,-5.647l0,-2.098l0,-1.614l0,-9.681l0,-6.455c0,-0.968 -0.646,-1.614 -1.614,-1.614Zm-9.843,31.789c0,-0.323 0.162,-0.646 0.162,-1.129l0,-3.228c0,-0.968 0.645,-1.613 1.613,-1.613l3.228,0c0.322,0 0.645,0 1.129,-0.162l-6.132,6.132Z" style="fill:#004f69;fill-rule:nonzero;stroke:#004f69;stroke-width:1px;"/><path d="M67.159,6.023l-11.295,0l0,-3.228c0,-0.968 -0.646,-1.613 -1.614,-1.613c-0.968,0 -1.614,0.645 -1.614,1.613l0,3.228l-32.272,0l0,-3.228c0,-0.968 -0.646,-1.613 -1.614,-1.613c-0.968,0 -1.614,0.645 -1.614,1.613l0,3.228l-11.295,0c-2.743,0 -4.841,2.097 -4.841,4.84l0,12.91c0,0.968 0.646,1.613 1.614,1.613l67.772,0c0.968,0 1.614,-0.645 1.614,-1.613l0,-12.91c0,-2.743 -2.098,-4.84 -4.841,-4.84Zm1.614,16.136l-64.546,0l0,-11.296c0,-0.968 0.646,-1.613 1.614,-1.613l11.295,0l0,3.711c-0.968,0.484 -1.613,1.614 -1.613,2.743c0,1.775 1.452,3.228 3.227,3.228c1.775,0 3.227,-1.453 3.227,-3.228c0,-1.129 -0.645,-2.259 -1.613,-2.743l0,-3.711l32.272,0l0,3.711c-0.968,0.484 -1.613,1.614 -1.613,2.743c0,1.775 1.452,3.228 3.227,3.228c1.775,0 3.227,-1.453 3.227,-3.228c0,-1.129 -0.645,-2.259 -1.613,-2.743l0,-3.711l11.295,0c0.968,0 1.614,0.645 1.614,1.613l0,11.296l0,0Z" style="fill:#004f69;fill-rule:nonzero;stroke:#004f69;stroke-width:1px;"/><circle cx="30.046" cy="35.068" r="3.227" style="fill:#004f69;stroke:#004f69;stroke-width:1px;"/><circle cx="42.954" cy="35.068" r="3.227" style="fill:#004f69;stroke:#004f69;stroke-width:1px;"/><circle cx="55.864" cy="35.068" r="3.227" style="fill:#004f69;stroke:#004f69;stroke-width:1px;"/><circle cx="17.136" cy="49.591" r="3.227" style="fill:#004f69;stroke:#004f69;stroke-width:1px;"/><circle cx="30.046" cy="49.591" r="3.227" style="fill:#004f69;stroke:#004f69;stroke-width:1px;"/><circle cx="42.954" cy="49.591" r="3.227" style="fill:#004f69;stroke:#004f69;stroke-width:1px;"/></g></svg>