<?xml version="1.0" encoding="iso-8859-1"?>
<!-- Generator: Adobe Illustrator 19.0.0, SVG Export Plug-In . SVG Version: 6.00 Build 0)  -->
<svg version="1.1" id="Capa_1" xmlns="http://www.w3.org/2000/svg" xmlns:xlink="http://www.w3.org/1999/xlink" x="0px" y="0px"
	 viewBox="0 0 512 512" style="enable-background:new 0 0 512 512;" xml:space="preserve">
<g>
	<g>
		<path style="fill:#004f69;" d="M477.091,162.909h-23.273V128c0-6.982-4.655-11.636-11.636-11.636H69.818c-6.982,0-11.636,4.655-11.636,11.636v46.545
			c0,6.982,4.655,11.636,11.636,11.636h372.364h34.909c6.982,0,11.636,4.655,11.636,11.636v256c0,6.982-4.655,11.636-11.636,11.636
			H34.909c-6.982,0-11.636-4.655-11.636-11.636v-256c0-6.982,4.655-11.636,11.636-11.636c6.982,0,11.636-4.655,11.636-11.636
			s-4.655-11.636-11.636-11.636V58.182c0-6.982,4.655-11.636,11.636-11.636h111.709c8.145,0,15.127,2.327,22.109,8.145l32.582,25.6
			c10.473,8.145,23.273,12.8,36.073,12.8h216.436c6.982,0,11.636,4.655,11.636,11.636V128c0,6.982,4.655,11.636,11.636,11.636
			s11.636-4.655,11.636-11.636v-23.273c0-19.782-15.127-34.909-34.909-34.909H249.018c-8.145,0-15.127-2.327-22.109-8.145
			l-32.582-25.6c-10.473-8.146-23.273-12.8-36.073-12.8H46.545c-19.782,0-34.909,15.127-34.909,34.909v114.036
			C4.655,178.036,0,187.345,0,197.818v256c0,19.782,15.127,34.909,34.909,34.909h442.182c19.782,0,34.909-15.127,34.909-34.909v-256
			C512,178.036,496.873,162.909,477.091,162.909z M430.545,162.909H81.455v-23.273h349.091V162.909z"/>
	</g>
</g>
<g>
	<g>
		<path style="fill:#004f69;" d="M325.818,279.273H186.182c-6.982,0-11.636,4.655-11.636,11.636s4.655,11.636,11.636,11.636h139.636
			c6.982,0,11.636-4.655,11.636-11.636S332.8,279.273,325.818,279.273z"/>
	</g>
</g>
<g>
	<g>
		<path style="fill:#004f69;" d="M302.545,325.818h-93.091c-6.982,0-11.636,4.655-11.636,11.636c0,6.982,4.655,11.636,11.636,11.636h93.091
			c6.982,0,11.636-4.655,11.636-11.636C314.182,330.473,309.527,325.818,302.545,325.818z"/>
	</g>
</g>
<g>
</g>
<g>
</g>
<g>
</g>
<g>
</g>
<g>
</g>
<g>
</g>
<g>
</g>
<g>
</g>
<g>
</g>
<g>
</g>
<g>
</g>
<g>
</g>
<g>
</g>
<g>
</g>
<g>
</g>
</svg>
