<?xml version="1.0" encoding="iso-8859-1"?>
<!-- Generator: Adobe Illustrator 19.0.0, SVG Export Plug-In . SVG Version: 6.00 Build 0)  -->
<svg version="1.1" id="Capa_1" xmlns="http://www.w3.org/2000/svg" xmlns:xlink="http://www.w3.org/1999/xlink" x="0px" y="0px"
	 viewBox="0 0 512.303 512.303" style="enable-background:new 0 0 512.303 512.303;" xml:space="preserve">
<g>
	<g>
		<path style="fill:#004f69;" d="M134.121,379.497c-24.436-24.436-62.836-24.436-87.273-1.164C17.757,407.424,1.466,483.06,0.303,492.37
			c-1.164,5.818,1.164,10.473,4.655,15.127c3.491,3.491,6.982,4.655,11.636,4.655c1.164,0,2.327,0,3.491,0
			c8.145-1.164,84.945-17.455,114.036-46.546C157.394,442.333,157.394,402.77,134.121,379.497z M116.666,449.315
			c-17.455,17.455-62.836,31.418-91.927,38.4c6.982-29.091,22.109-75.636,38.4-91.927c6.982-6.982,17.455-11.636,26.764-11.636
			c9.309,0,19.782,3.491,26.764,11.636C131.794,409.751,131.794,434.188,116.666,449.315z"/>
	</g>
</g>
<g>
	<g>
		<path style="fill:#004f69;" d="M398.266,314.333c-11.636,0-23.273,4.655-31.418,12.8l-5.818,5.818v-37.236l73.309-73.309
			c50.036-50.036,77.964-116.364,77.964-187.345c0-19.782-15.127-34.909-34.909-34.909c-70.982,0-137.309,27.927-187.345,77.964
			l-73.309,73.309h-37.236l5.818-5.818c8.145-8.145,12.8-19.782,12.8-31.418c0-24.436-19.782-44.218-44.218-44.218
			c-11.636,0-23.273,4.655-31.418,12.8l-83.782,83.782c-4.655,4.655-4.655,11.636,0,16.291l46.545,46.545
			c2.327,2.327,4.655,3.491,8.146,3.491c3.491,0,5.818-1.164,8.145-3.491l15.127-15.127l18.618,18.618
			c-11.636,13.964-11.636,34.909,1.164,47.709l4.655,4.655h-1.164c-11.636,3.491-23.273,10.473-31.418,19.782
			c-4.655,4.655-4.655,11.636,0,16.291l81.455,81.455c2.327,2.327,5.818,3.491,8.145,3.491c3.491,0,5.818-1.164,8.145-3.491
			c9.309-9.309,15.127-19.782,19.782-31.418v-1.164l4.655,4.655c12.8,12.8,33.745,13.964,47.709,1.164l18.618,18.618l-15.127,15.127
			c-4.655,4.655-4.655,11.636,0,16.291l46.545,46.545c2.327,2.327,5.818,3.491,8.145,3.491c3.491,0,5.818-1.164,8.145-3.491
			l83.782-83.782c8.146-8.145,12.8-19.782,12.8-31.418C442.485,334.115,422.703,314.333,398.266,314.333z M477.394,23.424
			c6.982,0,11.636,4.655,11.636,11.636c0,29.091-5.818,58.182-15.127,84.945l-80.291-80.291
			C419.212,29.242,448.303,23.424,477.394,23.424z M93.394,204.951l-30.255-30.255l75.636-75.636
			c3.491-3.491,9.309-5.818,15.127-5.818c11.636,0,20.945,9.309,20.945,20.945c0,5.818-2.327,11.636-5.818,15.127L93.394,204.951z
			 M203.939,364.37c-1.164,4.655-3.491,9.309-6.982,13.964l-62.836-62.836c4.655-2.327,9.309-4.655,13.964-6.982l12.8-4.655
			l47.709,47.709L203.939,364.37z M287.721,352.733c-4.655-4.655-11.636-4.655-16.291,0l-6.982,6.982
			c-4.655,4.655-11.636,4.655-16.291,0l-95.418-95.418c-4.655-4.655-4.655-11.636,0-16.291l6.982-6.982
			c4.655-4.655,4.655-11.636,0-16.291l-26.764-26.764l23.273-23.273h37.236l-15.127,15.127c-4.655,4.655-4.655,11.636,0,16.291
			s11.636,4.655,16.291,0L306.339,94.406c18.618-18.618,39.564-33.745,62.836-45.382l94.255,94.255
			c-11.636,23.273-26.764,44.218-45.382,62.836L306.339,317.824c-4.655,4.655-4.655,11.636,0,16.291
			c2.327,2.327,5.818,3.491,8.145,3.491c2.327,0,5.818-1.164,8.146-3.491l15.127-15.127v37.236l-23.273,23.273L287.721,352.733z
			 M413.394,373.679l-75.636,75.636l-30.255-30.255l75.636-75.636c3.491-3.491,9.309-5.818,15.127-5.818
			c11.636,0,20.945,9.309,20.945,20.945C419.212,364.37,416.885,370.188,413.394,373.679z"/>
	</g>
</g>
<g>
	<g>
		<path style="fill:#004f69;" d="M337.757,116.515c-32.582,0-58.182,25.6-58.182,58.182c0,32.582,25.6,58.182,58.182,58.182
			c32.582,0,58.182-25.6,58.182-58.182C395.939,142.115,370.339,116.515,337.757,116.515z M337.757,209.606
			c-19.782,0-34.909-15.127-34.909-34.909s15.127-34.909,34.909-34.909c19.782,0,34.909,15.127,34.909,34.909
			S357.539,209.606,337.757,209.606z"/>
	</g>
</g>
<g>
	<g>
		<path style="fill:#004f69;" d="M287.721,306.188l-81.455-81.455c-4.655-4.655-11.636-4.655-16.291,0s-4.655,11.636,0,16.291l81.455,81.455
			c2.327,2.327,5.818,3.491,8.145,3.491c3.491,0,5.818-1.164,8.145-3.491C292.375,317.824,292.375,310.842,287.721,306.188z"/>
	</g>
</g>
<g>
	<g>
		<path style="fill:#004f69;" d="M299.357,457.46c-4.655-4.654-11.636-4.654-16.291,0l-23.273,23.273c-4.655,4.655-4.655,11.636,0,16.291
			c2.327,2.327,5.818,3.491,8.145,3.491c3.491,0,5.818-1.164,8.146-3.491l23.273-23.273
			C304.012,469.097,304.012,462.115,299.357,457.46z"/>
	</g>
</g>
<g>
	<g>
		<path style="fill:#004f69;" d="M54.994,213.097c-4.655-4.655-11.636-4.655-16.291,0L15.43,236.37c-4.655,4.655-4.655,11.636,0,16.291
			c2.327,2.327,4.655,3.491,8.145,3.491s5.818-1.164,8.146-3.491l23.273-23.273C59.648,224.733,59.648,217.751,54.994,213.097z"/>
	</g>
</g>
<g>
</g>
<g>
</g>
<g>
</g>
<g>
</g>
<g>
</g>
<g>
</g>
<g>
</g>
<g>
</g>
<g>
</g>
<g>
</g>
<g>
</g>
<g>
</g>
<g>
</g>
<g>
</g>
<g>
</g>
</svg>
