<?xml version="1.0" encoding="iso-8859-1"?>
<!-- Generator: Adobe Illustrator 19.0.0, SVG Export Plug-In . SVG Version: 6.00 Build 0)  -->
<svg xmlns="http://www.w3.org/2000/svg" xmlns:xlink="http://www.w3.org/1999/xlink" version="1.1" id="Capa_1" x="0px" y="0px" viewBox="0 0 512 512" style="enable-background:new 0 0 512 512;" xml:space="preserve">
<g>
	<g>
		<path style="fill:#004f69;" d="M372.359,337.455c-25.67,0-46.545,20.876-46.545,46.545c0,25.67,20.876,46.545,46.545,46.545    c25.67,0,46.545-20.876,46.545-46.545C418.904,358.33,398.029,337.455,372.359,337.455z M372.359,407.273    c-12.835,0-23.273-10.438-23.273-23.273s10.438-23.273,23.273-23.273s23.273,10.438,23.273,23.273    S385.194,407.273,372.359,407.273z"/>
	</g>
</g>
<g>
	<g>
		<path style="fill:#004f69;" d="M186.177,81.455c-44.916,0-81.455,36.538-81.455,81.455c0,44.905,36.538,81.455,81.455,81.455s81.455-36.55,81.455-81.455    C267.632,117.993,231.094,81.455,186.177,81.455z M186.177,221.091c-32.081,0-58.182-26.1-58.182-58.182    c0-32.081,26.1-58.182,58.182-58.182s58.182,26.1,58.182,58.182C244.359,194.991,218.259,221.091,186.177,221.091z"/>
	</g>
</g>
<g>
	<g>
		<path style="fill:#004f69;" d="M486.209,424.867l-8.855-11.136c-2.095-2.63-2.909-6.063-2.246-9.425c1.315-6.656,1.978-13.487,1.978-20.305    s-0.663-13.649-1.978-20.305c-0.663-3.351,0.163-6.796,2.246-9.425l8.844-11.136c2.781-3.503,3.305-8.297,1.361-12.323    l-9.775-20.154c-2.327-4.783-7.645-7.366-12.812-6.319l-14.522,2.979c-3.468,0.675-7.087-0.221-9.67-2.467    c-10.147-8.785-21.655-15.453-34.246-19.805c-3.165-1.094-5.737-3.747-6.842-7.087l-4.666-13.999    c-1.571-4.759-6.016-7.959-11.031-7.959h-23.273c-5.015,0-9.449,3.2-11.043,7.959l-4.666,13.999    c-1.117,3.34-3.677,6.004-6.854,7.087c-12.579,4.352-24.087,11.02-34.234,19.805c-2.595,2.246-6.179,3.188-9.658,2.467    l-14.534-2.979c-5.155-1.024-10.484,1.536-12.812,6.318l-9.763,20.166c-1.943,4.026-1.42,8.82,1.361,12.323l8.844,11.136    c2.095,2.63,2.909,6.063,2.246,9.425c-1.315,6.644-1.978,13.475-1.978,20.294s0.663,13.649,1.978,20.305    c0.663,3.351-0.163,6.796-2.246,9.425l-8.844,11.136c-2.781,3.503-3.305,8.297-1.361,12.323l9.775,20.154    c2.316,4.794,7.622,7.377,12.812,6.319l14.522-2.979c3.456-0.663,7.075,0.221,9.67,2.467    c10.147,8.786,21.655,15.453,34.246,19.805c3.165,1.094,5.737,3.747,6.842,7.087l4.666,13.999    c1.583,4.759,6.016,7.959,11.031,7.959h23.273c5.015,0,9.449-3.2,11.043-7.959l4.666-13.999c1.117-3.34,3.677-6.004,6.854-7.087    c12.579-4.352,24.087-11.02,34.234-19.805c2.595-2.234,6.202-3.165,9.658-2.467l14.534,2.979    c5.19,1.094,10.484-1.524,12.812-6.318l9.775-20.154C489.514,433.164,488.99,428.37,486.209,424.867z M452.277,368.198    c1.024,5.178,1.536,10.496,1.536,15.802s-0.512,10.624-1.536,15.802c-1.99,10.054,0.512,20.41,6.854,28.393l4.294,5.411    l-2.63,5.434l-5.679-1.164c-10.496-2.141-21.539,0.721-29.556,7.668c-7.901,6.842-16.849,12.02-26.601,15.395    c-9.972,3.444-17.943,11.555-21.329,21.725l-2.025,6.063h-6.505l-2.013-6.051c-3.398-10.17-11.369-18.281-21.329-21.725    c-9.763-3.375-18.711-8.553-26.612-15.395c-8.017-6.947-19.072-9.821-29.568-7.668l-5.667,1.164l-2.63-5.434l4.294-5.411    c6.342-7.994,8.844-18.339,6.854-28.393c-1.012-5.19-1.524-10.508-1.524-15.814s0.512-10.624,1.536-15.802    c1.99-10.054-0.512-20.41-6.854-28.393l-4.294-5.411l2.63-5.434l5.679,1.164c10.484,2.129,21.539-0.721,29.556-7.668    c7.901-6.842,16.849-12.02,26.601-15.395c9.972-3.444,17.943-11.555,21.329-21.725l2.025-6.063h6.505l2.013,6.051    c3.398,10.17,11.369,18.281,21.329,21.725c9.763,3.375,18.711,8.553,26.612,15.395c8.017,6.947,19.049,9.809,29.568,7.668    l5.667-1.164l2.63,5.434l-4.294,5.411C452.789,347.788,450.288,358.132,452.277,368.198z"/>
	</g>
</g>
<g>
	<g>
		<path style="fill:#004f69;" d="M341.127,140.23l-12.358-4.119c-3.689-1.222-6.516-4.131-7.389-7.575c-3.281-12.975-8.413-25.379-15.255-36.876    c-1.839-3.095-1.908-7.18-0.175-10.636l5.818-11.648c2.234-4.48,1.362-9.891-2.188-13.428l-16.454-16.454    c-3.537-3.526-8.937-4.422-13.428-2.188l-11.66,5.83c-3.444,1.734-7.517,1.676-10.636-0.186    c-11.497-6.842-23.901-11.974-36.864-15.255c-3.444-0.873-6.353-3.7-7.575-7.389l-4.119-12.358C207.274,3.2,202.829,0,197.813,0    h-23.273c-5.015,0-9.449,3.2-11.043,7.959l-4.119,12.358c-1.222,3.689-4.131,6.516-7.575,7.389    c-12.975,3.281-25.379,8.413-36.876,15.255c-3.095,1.839-7.168,1.897-10.636,0.175l-11.648-5.818    c-4.48-2.246-9.891-1.361-13.428,2.176L62.762,55.948c-3.537,3.537-4.422,8.948-2.188,13.428l5.83,11.66    c1.722,3.456,1.664,7.529-0.186,10.624c-6.842,11.497-11.974,23.901-15.255,36.864c-0.873,3.444-3.7,6.353-7.389,7.575    l-12.358,4.119c-4.748,1.606-7.948,6.039-7.948,11.055v23.273c0,5.015,3.2,9.449,7.959,11.031l12.369,4.131    c3.677,1.21,6.505,4.119,7.377,7.564c3.281,12.986,8.425,25.391,15.255,36.876c1.839,3.095,1.908,7.168,0.175,10.636    l-5.818,11.648c-2.234,4.48-1.361,9.891,2.188,13.428l16.454,16.454c3.537,3.561,8.948,4.422,13.428,2.188l11.648-5.83    c3.468-1.734,7.54-1.664,10.647,0.186c11.52,6.854,23.924,11.985,36.864,15.267c3.444,0.861,6.342,3.689,7.575,7.377l4.119,12.358    c1.583,4.759,6.016,7.959,11.031,7.959h23.273c5.015,0,9.449-3.2,11.043-7.959l4.119-12.358c1.222-3.677,4.131-6.516,7.575-7.377    c12.94-3.27,25.344-8.413,36.876-15.267c3.095-1.85,7.168-1.92,10.636-0.175l11.648,5.83c4.48,2.234,9.891,1.361,13.428-2.188    l16.454-16.454c3.537-3.549,4.422-8.96,2.188-13.428l-5.818-11.648c-1.734-3.468-1.664-7.54,0.174-10.636    c6.831-11.485,11.962-23.889,15.255-36.876c0.873-3.444,3.7-6.353,7.389-7.575l12.358-4.119c4.748-1.594,7.948-6.028,7.948-11.043    v-23.273C349.086,146.257,345.886,141.824,341.127,140.23z M325.813,166.167l-4.387,1.466    c-11.311,3.759-19.759,12.719-22.598,23.959c-2.734,10.799-7.017,21.12-12.695,30.673c-5.946,9.984-6.307,22.307-0.989,32.954    l2.071,4.143l-4.596,4.596l-4.154-2.083c-10.647-5.318-22.959-4.969-32.943,1.001c-9.588,5.679-19.91,9.961-30.685,12.684    c-11.229,2.839-20.177,11.287-23.948,22.575l-1.466,4.41h-6.505l-1.466-4.41c-3.77-11.299-12.719-19.735-23.948-22.575    c-10.764-2.711-21.085-7.005-30.673-12.695c-9.996-5.958-22.307-6.33-32.954-1.001l-4.154,2.083l-4.596-4.596l2.071-4.143    c5.318-10.647,4.945-22.97-0.989-32.954c-5.679-9.542-9.949-19.875-12.695-30.673c-2.839-11.241-11.287-20.189-22.586-23.948    l-4.387-1.478v-6.505l4.398-1.466c11.299-3.77,19.747-12.719,22.586-23.948c2.735-10.787,7.005-21.108,12.695-30.673    c5.946-9.996,6.307-22.319,0.989-32.943l-2.071-4.154l4.596-4.596l4.143,2.071c10.624,5.329,22.959,4.957,32.954-0.989    c9.565-5.69,19.887-9.961,30.685-12.695c11.229-2.839,20.177-11.287,23.948-22.586l1.466-4.399h6.505l1.466,4.399    c3.77,11.299,12.719,19.747,23.948,22.586c10.787,2.735,21.108,7.005,30.685,12.695c9.996,5.946,22.307,6.319,32.943,0.989    l4.143-2.071l4.596,4.596l-2.071,4.143c-5.329,10.636-4.957,22.959,0.989,32.954c5.69,9.565,9.961,19.887,12.695,30.685    c2.839,11.229,11.287,20.177,22.586,23.948l4.399,1.466V166.167z"/>
	</g>
</g>
<g>
</g>
<g>
</g>
<g>
</g>
<g>
</g>
<g>
</g>
<g>
</g>
<g>
</g>
<g>
</g>
<g>
</g>
<g>
</g>
<g>
</g>
<g>
</g>
<g>
</g>
<g>
</g>
<g>
</g>
</svg>
