<?xml version="1.0" encoding="iso-8859-1"?>
<!-- Generator: Adobe Illustrator 19.0.0, SVG Export Plug-In . SVG Version: 6.00 Build 0)  -->
<svg version="1.1" id="Layer_1" xmlns="http://www.w3.org/2000/svg" xmlns:xlink="http://www.w3.org/1999/xlink" x="0px" y="0px"
	 viewBox="0 0 512 512" style="enable-background:new 0 0 512 512;" xml:space="preserve">
<g>
	<g>
		<path style="fill:#004f69;" d="M369.466,69.993C359.063,29.463,321.92,0,279.273,0h-46.545c-43.369,0-79.802,29.847-90.089,70.063
			c-34.141,2.432-61.184,30.906-61.184,65.652c0,12.369,3.468,24.448,10.019,34.921l20.841,33.35
			c2.211,3.537,6.004,5.469,9.879,5.469c2.106,0,4.236-0.57,6.156-1.769c5.446-3.398,7.098-10.577,3.689-16.035l-20.841-33.35
			c-4.236-6.784-6.47-14.58-6.47-22.586c0-20.852,15.092-38.191,34.909-41.844V128c0,23.203,8.692,77.847,8.995,79.639
			c2.199,19.491,9.996,37.888,22.563,53.213l2.49,3.037c20.143,24.564,50.141,38.656,82.316,38.656s62.173-14.092,82.292-38.644
			l2.513-3.06c12.556-15.313,20.352-33.711,22.493-52.666c0.372-2.327,9.065-56.972,9.065-80.175
			c0-6.435-5.201-11.636-11.636-11.636c-6.435,0-11.636,5.201-11.636,11.636h-13.777c-4.817-13.51-17.617-23.273-32.768-23.273
			c-15.151,0-27.951,9.763-32.768,23.273h-27.567c-4.806-13.51-17.606-23.273-32.756-23.273c-15.151,0-27.951,9.763-32.768,23.273
			h-13.777V93.091c0-38.505,31.313-69.818,69.818-69.818h46.545c34.525,0,64.233,25.716,69.097,59.834
			c0.826,5.725,6.563,9.984,12.358,9.984h3.921c23.494,0,42.624,19.13,42.624,42.624c0,8.006-2.234,15.802-6.481,22.575
			l-20.841,33.35c-3.409,5.457-1.745,12.637,3.689,16.035c1.932,1.21,4.061,1.78,6.167,1.78c3.875,0,7.668-1.943,9.879-5.469
			l20.841-33.35c6.551-10.473,10.019-22.551,10.019-34.921C430.545,101.004,403.561,72.46,369.466,69.993z M302.545,128
			c6.423,0,11.636,5.213,11.636,11.636s-5.213,11.636-11.636,11.636s-11.636-5.213-11.636-11.636S296.122,128,302.545,128z
			 M209.454,128c6.423,0,11.636,5.213,11.636,11.636s-5.213,11.636-11.636,11.636s-11.636-5.213-11.636-11.636
			S203.031,128,209.454,128z M176.686,151.273c4.818,13.51,17.617,23.273,32.768,23.273c15.151,0,27.951-9.763,32.768-23.273h27.567
			c4.818,13.51,17.617,23.273,32.768,23.273c15.151,0,27.951-9.763,32.768-23.273h12.172c-2.513,23.994-7.11,52.969-7.226,53.748
			c-1.699,15.023-7.738,29.231-17.431,41.053l-2.513,3.06c-15.709,19.154-39.156,30.138-64.326,30.138
			c-25.169,0-48.617-10.985-64.314-30.15l-2.49-3.037c-9.705-11.846-15.744-26.042-17.513-41.6
			c-0.07-0.396-4.655-29.242-7.156-53.213H176.686z"/>
	</g>
</g>
<g>
	<g>
		<path style="fill:#004f69;" d="M417.687,342.33l-89.786-16.314c-3.386-0.663-6.877,0.303-9.53,2.502l-47.453,39.552c-8.634,7.18-21.178,7.18-29.812,0
			c-4.934-4.119-12.276-3.433-16.384,1.501c-4.119,4.945-3.444,12.276,1.501,16.384c5.457,4.538,11.741,7.482,18.269,9.146
			c-0.035,0.186-0.128,0.349-0.128,0.535v58.182c0,6.435,5.201,11.636,11.636,11.636c6.435,0,11.636-5.201,11.636-11.636v-58.182
			c0-0.186-0.093-0.337-0.105-0.524c6.528-1.664,12.812-4.608,18.281-9.158l43.287-36.084l84.422,15.337
			c16.605,3.037,28.66,17.489,28.66,34.362v77.521c0,6.423-5.213,11.636-11.636,11.636H81.454c-6.423,0-11.636-5.213-11.636-11.636
			v-77.521c0-16.873,12.055-31.313,28.66-34.351l88.751-16.128h80.407c6.435,0,11.636-5.201,11.636-11.636
			c0-6.435-5.201-11.636-11.636-11.636h-81.455c-0.698,0-1.396,0.07-2.083,0.198L94.301,342.33
			c-27.66,5.05-47.756,29.114-47.756,57.239v77.521c0,19.247,15.663,34.909,34.909,34.909h349.091
			c19.247,0,34.909-15.663,34.909-34.909v-77.521C465.455,371.444,445.358,347.38,417.687,342.33z"/>
	</g>
</g>
<g>
	<g>
		<path style="fill:#004f69;" d="M299.136,224.5l-11.625-11.625c-1.071-1.082-2.362-1.932-3.805-2.525c-1.408-0.594-2.921-0.896-4.433-0.896h-46.545
			c-1.513,0-3.025,0.303-4.445,0.896c-1.431,0.594-2.723,1.455-3.793,2.525L212.864,224.5c-4.55,4.55-4.55,11.904,0,16.454
			c2.269,2.269,5.248,3.409,8.227,3.409c2.979,0,5.958-1.14,8.227-3.409l8.227-8.227h36.911l8.227,8.227
			c2.269,2.269,5.248,3.409,8.227,3.409c2.979,0,5.958-1.14,8.227-3.409C303.686,236.404,303.686,229.05,299.136,224.5z"/>
	</g>
</g>
<g>
</g>
<g>
</g>
<g>
</g>
<g>
</g>
<g>
</g>
<g>
</g>
<g>
</g>
<g>
</g>
<g>
</g>
<g>
</g>
<g>
</g>
<g>
</g>
<g>
</g>
<g>
</g>
<g>
</g>
</svg>
