<?xml version="1.0" encoding="iso-8859-1"?>
<!-- Generator: Adobe Illustrator 19.0.0, SVG Export Plug-In . SVG Version: 6.00 Build 0)  -->
<svg version="1.1" id="Capa_1" xmlns="http://www.w3.org/2000/svg" xmlns:xlink="http://www.w3.org/1999/xlink" x="0px" y="0px"
	 viewBox="0 0 512 512" style="enable-background:new 0 0 512 512;" xml:space="preserve">
<g>
	<g>
		<circle cx="174.545" cy="116.364" r="11.636"/>
	</g>
</g>
<g>
	<g>
		<circle style="fill:#004f69;" cx="337.501" cy="395.683" r="11.636"/>
	</g>
</g>
<g>
	<g>
		<circle style="fill:#004f69;" cx="116.364" cy="174.545" r="11.636"/>
	</g>
</g>
<g>
	<g>
		<circle style="fill:#004f69;" cx="395.625" cy="337.466" r="11.636"/>
	</g>
</g>
<g>
	<g>
		<circle style="fill:#004f69;" cx="337.455" cy="116.317" r="11.636"/>
	</g>
</g>
<g>
	<g>
		<circle style="fill:#004f69;" cx="174.534" cy="395.648" r="11.636"/>
	</g>
</g>
<g>
	<g>
		<circle style="fill:#004f69;" cx="395.625" cy="174.545" r="11.636"/>
	</g>
</g>
<g>
	<g>
		<circle style="fill:#004f69;" cx="116.364" cy="337.443" r="11.636"/>
	</g>
</g>
<g>
	<g>
		<path style="fill:#004f69;" d="M256,0C115.2,0,0,115.2,0,256s115.2,256,256,256c6.982,0,11.636-4.655,11.636-11.636s-4.655-11.636-11.636-11.636
			C128,488.727,23.273,384,23.273,256S128,23.273,256,23.273S488.727,128,488.727,256c0,111.709-79.127,207.127-188.509,228.073
			c-5.818,1.164-10.473,6.982-9.309,13.964c1.164,6.982,6.982,10.473,13.964,9.309C424.727,484.073,512,378.182,512,256
			C512,115.2,396.8,0,256,0z"/>
	</g>
</g>
<g>
	<g>
		<path style="fill:#004f69;" d="M304.873,52.364c-5.818-1.164-12.8,2.327-13.964,8.145s2.327,12.8,8.145,13.964
			c80.291,19.782,137.309,88.436,143.127,169.891h-23.273c-6.982,0-11.636,4.655-11.636,11.636s4.655,11.636,11.636,11.636h22.109
			C435.2,360.727,360.727,435.2,267.636,441.018v-22.109c0-6.982-4.655-11.636-11.636-11.636s-11.636,4.655-11.636,11.636v22.109
			C151.273,435.2,76.8,360.727,70.982,267.636h22.109c6.982,0,11.636-4.655,11.636-11.636s-4.655-11.636-11.636-11.636H69.818
			c5.818-93.091,81.455-168.727,174.545-174.545v23.273c0,6.982,4.655,11.636,11.636,11.636s11.636-4.655,11.636-11.636V58.182
			c0-6.982-4.655-11.636-11.636-11.636C140.8,46.545,46.545,140.8,46.545,256S140.8,465.455,256,465.455S465.455,371.2,465.455,256
			C465.455,159.418,399.127,75.636,304.873,52.364z"/>
	</g>
</g>
<g>
	<g>
		<path style="fill:#004f69;" d="M357.236,340.945l-69.818-69.818c2.327-4.655,3.491-9.309,3.491-15.127c0-15.127-9.309-27.927-23.273-32.582v-60.509
			c0-6.982-4.655-11.636-11.636-11.636s-11.636,4.655-11.636,11.636v60.509c-13.964,4.655-23.273,17.455-23.273,32.582
			c0,19.782,15.127,34.909,34.909,34.909c5.818,0,10.473-1.164,15.127-3.491l69.818,69.818c2.327,2.327,5.818,3.491,8.146,3.491
			c2.327,0,5.818-1.164,8.145-3.491C361.891,352.582,361.891,345.6,357.236,340.945z M256,267.636
			c-6.982,0-11.636-4.655-11.636-11.636s4.655-11.636,11.636-11.636s11.636,4.655,11.636,11.636S262.982,267.636,256,267.636z"/>
	</g>
</g>
<g>
</g>
<g>
</g>
<g>
</g>
<g>
</g>
<g>
</g>
<g>
</g>
<g>
</g>
<g>
</g>
<g>
</g>
<g>
</g>
<g>
</g>
<g>
</g>
<g>
</g>
<g>
</g>
<g>
</g>
</svg>
