<?xml version="1.0" encoding="iso-8859-1"?>
<!-- Generator: Adobe Illustrator 19.0.0, SVG Export Plug-In . SVG Version: 6.00 Build 0)  -->
<svg version="1.1" id="Capa_1" xmlns="http://www.w3.org/2000/svg" xmlns:xlink="http://www.w3.org/1999/xlink" x="0px" y="0px"
	 viewBox="0 0 512 512" style="enable-background:new 0 0 512 512;" xml:space="preserve">
<g>
	<g>
		<circle style="fill:#004f69;" cx="256" cy="267.636" r="11.636"/>
	</g>
</g>
<g>
	<g>
		<path style="fill:#004f69;" d="M314.182,209.455h-46.545c-6.982,0-11.636,4.655-11.636,11.636c0,6.982,4.655,11.636,11.636,11.636h34.909v69.818h-93.091
			v-69.818h11.636c6.982,0,11.636-4.655,11.636-11.636v-58.182c0-12.8,10.473-23.273,23.273-23.273
			c12.8,0,23.273,10.473,23.273,23.273v11.636c0,6.982,4.655,11.636,11.636,11.636s11.636-4.655,11.636-11.636v-11.636
			c0-25.6-20.945-46.545-46.545-46.545c-25.6,0-46.545,20.945-46.545,46.545v46.545h-11.636c-6.982,0-11.636,4.655-11.636,11.636
			v93.091c0,6.982,4.655,11.636,11.636,11.636h116.364c6.982,0,11.636-4.655,11.636-11.636v-93.091
			C325.818,214.109,321.164,209.455,314.182,209.455z"/>
	</g>
</g>

<g>
	
</g>
<g>
</g>
<g>
</g>
<g>
</g>
<g>
</g>
<g>
</g>
<g>
</g>
<g>
</g>
<g>
</g>
<g>
</g>
<g>
</g>
<g>
</g>
<g>
</g>
<g>
</g>
<g>
</g>
<g>
</g>
</svg>
